<?xml version="1.0" standalone="no"?>
<!DOCTYPE svg PUBLIC "-//W3C//DTD SVG 20010904//EN"
 "http://www.w3.org/TR/2001/REC-SVG-20010904/DTD/svg10.dtd">
<svg version="1.0" xmlns="http://www.w3.org/2000/svg"
 width="420.000000pt" height="420.000000pt" viewBox="0 0 420.000000 420.000000"
 preserveAspectRatio="xMidYMid meet">
<metadata>
Created by potrace 1.14, written by Peter Selinger 2001-2017
</metadata>
<g transform="translate(0.000000,420.000000) scale(0.100000,-0.100000)"
fill="#000000" stroke="none">
<path d="M1750 3300 c-89 -17 -269 -98 -321 -142 -15 -13 -41 -34 -59 -48 -19
-14 -45 -35 -59 -47 -14 -13 -30 -27 -36 -31 -5 -5 -22 -25 -37 -44 -24 -31
-48 -59 -92 -110 -20 -23 -41 -61 -38 -70 1 -5 -3 -8 -10 -8 -6 0 -8 -3 -5 -6
4 -4 -3 -20 -14 -35 -11 -16 -18 -29 -15 -29 3 0 -3 -16 -14 -35 -11 -19 -22
-47 -25 -62 -3 -16 -8 -37 -10 -48 -25 -111 -28 -137 -28 -266 0 -137 8 -196
28 -219 18 -21 30 -70 17 -70 -18 0 -60 -45 -72 -76 -14 -36 -14 -136 0 -200
11 -47 60 -210 75 -246 6 -16 0 -18 -58 -18 -57 0 -67 -3 -91 -27 l-28 -27 7
-176 c3 -96 8 -195 10 -220 2 -25 7 -110 11 -190 4 -80 7 -161 9 -180 1 -20
-6 -46 -17 -62 -10 -14 -18 -30 -18 -36 0 -5 -7 -15 -15 -22 -8 -7 -12 -16 -9
-21 3 -5 0 -9 -5 -9 -6 0 -10 -3 -9 -7 2 -5 -8 -29 -21 -55 -12 -27 -24 -54
-25 -60 -1 -7 -5 -18 -8 -24 -4 -6 -9 -21 -12 -35 -3 -13 -8 -35 -11 -49 -12
-54 -19 -106 -30 -227 l-6 -63 1375 0 c756 0 1377 3 1379 8 2 4 0 47 -5 97 -5
50 -10 97 -10 105 -2 64 -81 289 -127 361 -17 27 -27 57 -26 71 2 14 6 100 10
190 3 90 8 184 10 208 2 34 16 308 17 340 1 42 -6 65 -28 85 -22 21 -37 25
-85 25 -33 0 -59 1 -59 3 0 1 11 31 24 67 13 36 23 67 24 70 0 3 6 25 13 50
17 60 18 68 25 115 10 75 10 100 1 135 -9 36 -52 101 -65 99 -4 -1 -17 -1 -29
0 l-22 1 25 44 c64 114 85 311 52 493 -14 78 -30 125 -67 200 -27 54 -57 107
-67 118 -11 11 -39 45 -63 75 -46 57 -54 65 -97 96 -14 11 -40 31 -57 46 -18
15 -35 28 -39 28 -4 0 -13 6 -20 13 -12 13 -180 98 -203 104 -5 1 -37 9 -70
19 -91 25 -95 25 -175 29 -59 3 -87 -1 -130 -17 -30 -12 -60 -25 -66 -30 -6
-4 -36 5 -72 23 -34 16 -72 32 -84 34 -67 12 -171 10 -248 -5z"/>
</g>
</svg>
